<?xml version="1.0" encoding="UTF-8" standalone="no"?>
<!-- Created with Inkscape (http://www.inkscape.org/) -->

<svg
   xmlns:dc="http://purl.org/dc/elements/1.1/"
   xmlns:cc="http://creativecommons.org/ns#"
   xmlns:rdf="http://www.w3.org/1999/02/22-rdf-syntax-ns#"
   xmlns:svg="http://www.w3.org/2000/svg"
   xmlns="http://www.w3.org/2000/svg"
   xmlns:sodipodi="http://sodipodi.sourceforge.net/DTD/sodipodi-0.dtd"
   xmlns:inkscape="http://www.inkscape.org/namespaces/inkscape"
   width="600"
   height="428.66318"
   id="svg2"
   version="1.1"
   inkscape:version="0.48.5 r10040"
   sodipodi:docname="Hello_my_name_is_sticker.svg">
  <defs
     id="defs4" />
  <sodipodi:namedview
     id="base"
     pagecolor="#ffffff"
     bordercolor="#666666"
     borderopacity="1.0"
     inkscape:pageopacity="0.0"
     inkscape:pageshadow="2"
     inkscape:zoom="0.7"
     inkscape:cx="228.10525"
     inkscape:cy="222.33887"
     inkscape:document-units="px"
     inkscape:current-layer="layer1"
     showgrid="false"
     fit-margin-top="0"
     fit-margin-left="0"
     fit-margin-right="0"
     fit-margin-bottom="0"
     inkscape:window-width="1364"
     inkscape:window-height="746"
     inkscape:window-x="0"
     inkscape:window-y="0"
     inkscape:window-maximized="0" />
  <metadata
     id="metadata7">
    <rdf:RDF>
      <cc:Work
         rdf:about="">
        <dc:format>image/svg+xml</dc:format>
        <dc:type
           rdf:resource="http://purl.org/dc/dcmitype/StillImage" />
        <dc:title />
      </cc:Work>
    </rdf:RDF>
  </metadata>
  <g
     inkscape:label="Layer 1"
     inkscape:groupmode="layer"
     id="layer1"
     transform="translate(-71.060242,-326.03787)">
    <rect
       style="fill:#ef3d33;fill-opacity:1;fill-rule:nonzero;stroke:none"
       id="rect2991"
       width="600"
       height="428.66318"
       x="71.060242"
       y="326.03787"
       rx="29.901646"
       ry="32.257545" />
    <g
       style="font-size:44px;font-style:normal;font-variant:normal;font-weight:normal;font-stretch:normal;text-align:center;line-height:125%;letter-spacing:0px;word-spacing:0px;text-anchor:middle;fill:#ffffff;fill-opacity:1;stroke:none;font-family:Arial;-inkscape-font-specification:Arial"
       id="text3761"
       transform="matrix(1,0,0,0.88692047,0,39.101855)">
      <path
         d="m 307.72119,419.79074 0,-74 -13.7,0 0,30.1 -26.5,0 0,-30.1 -13.7,0 0,74 13.7,0 0,-31.1 26.5,0 0,31.1 13.7,0"
         style="font-size:100px;font-weight:bold;fill:#ffffff;font-family:ITC Avant Garde Gothic Pro;-inkscape-font-specification:ITC Avant Garde Gothic Pro"
         id="path3955"
         inkscape:connector-curvature="0" />
      <path
         d="m 375.68994,391.29074 c 0,-16.09998 -12.50001,-28.9 -28.7,-28.9 -16.79998,0 -29.2,13.20002 -29.2,29.8 0,16.49998 12.70002,29.4 29.3,29.4 11.79999,0 23.20001,-8.00001 26.8,-19.3 l -14,0 c -2.7,4.9 -7.4,7.1 -12.8,7.1 -5.49999,0 -10.5,-2.8 -13.5,-7.4 -0.8,-1.2 -1.5,-2.5 -1.8,-4 l 43.1,0 c 0.5,-2.2 0.8,-4.5 0.8,-6.7 m -13.6,-4 -30.7,0 c 1.9,-7.89999 7.60001,-12.7 15.7,-12.7 8.09999,0 13.7,4.70001 15,12.7"
         style="font-size:100px;font-weight:bold;fill:#ffffff;font-family:ITC Avant Garde Gothic Pro;-inkscape-font-specification:ITC Avant Garde Gothic Pro"
         id="path3957"
         inkscape:connector-curvature="0" />
      <path
         d="m 397.45244,419.79074 0,-74 -13.3,0 0,74 13.3,0"
         style="font-size:100px;font-weight:bold;fill:#ffffff;font-family:ITC Avant Garde Gothic Pro;-inkscape-font-specification:ITC Avant Garde Gothic Pro"
         id="path3959"
         inkscape:connector-curvature="0" />
      <path
         d="m 421.47588,419.79074 0,-74 -13.3,0 0,74 13.3,0"
         style="font-size:100px;font-weight:bold;fill:#ffffff;font-family:ITC Avant Garde Gothic Pro;-inkscape-font-specification:ITC Avant Garde Gothic Pro"
         id="path3961"
         inkscape:connector-curvature="0" />
      <path
         d="m 488.29932,391.89074 c 0,-16.29998 -13.00002,-29.5 -29.4,-29.5 -16.39999,0 -29.6,13.40002 -29.6,29.7 0,16.19998 13.40001,29.5 29.6,29.5 16.79998,0 29.4,-12.90002 29.4,-29.7 m -13.3,0.3 c 0,9.09999 -6.70001,17.2 -16.1,17.2 -9.59999,0 -16.3,-8.00001 -16.3,-17.3 0,-8.99999 6.90001,-17.5 16.3,-17.5 9.39999,0 16.1,8.70001 16.1,17.6"
         style="font-size:100px;font-weight:bold;fill:#ffffff;font-family:ITC Avant Garde Gothic Pro;-inkscape-font-specification:ITC Avant Garde Gothic Pro"
         id="path3963"
         inkscape:connector-curvature="0" />
    </g>
    <rect
       style="fill:#ffffff;fill-opacity:1;fill-rule:nonzero;stroke:none"
       id="rect3773"
       width="600"
       height="232.85713"
       x="71.060242"
       y="487.50504" />
  </g>
</svg>
